<svg width="109" height="151" viewBox="0 0 109 151" fill="none" xmlns="http://www.w3.org/2000/svg">
<path fill-rule="evenodd" clip-rule="evenodd" d="M90.0452 3.11049L89.751 3.01624L89.9478 3.58178L91.1245 5.56118C91.615 6.31524 92.1054 6.88078 92.6943 7.35207C92.7921 7.44632 92.8905 7.44632 92.9879 7.35207L93.0863 7.0693L90.0452 3.11049Z" fill="#231F20"/>
<path fill-rule="evenodd" clip-rule="evenodd" d="M97.5003 6.50375L97.7949 6.31524L99.7567 1.03684C98.579 3.1105 97.6965 4.90138 97.3045 6.4095L97.5003 6.50375Z" fill="#231F20"/>
<path fill-rule="evenodd" clip-rule="evenodd" d="M103.68 3.86456H103.386L101.522 5.46724C100.835 6.03247 100.345 6.59802 100.247 7.25782C100.443 7.44633 100.541 7.44633 100.541 7.44633L103.68 3.86456Z" fill="#231F20"/>
<path fill-rule="evenodd" clip-rule="evenodd" d="M66.0134 21.8677L65.3271 22.0562V22.339C64.15 22.716 62.9733 22.9988 61.7962 23.093L59.9322 23.8471L60.7169 23.7528L65.1309 22.8102C64.9351 23.2815 64.8366 23.6586 64.8366 24.1298L65.5229 23.9413L65.6214 23.3758L65.9159 23.6586L66.7984 23.3758L65.9159 22.6217L66.0134 21.8677Z" fill="#B74870"/>
<path fill-rule="evenodd" clip-rule="evenodd" d="M65.3271 22.0562L66.0134 21.8677L69.4465 21.4906L69.6427 21.2079L69.4465 21.1136L66.1118 21.3021L65.4248 21.3964C63.5611 21.6791 61.6978 22.2447 59.8338 23.093L58.5592 23.7528C57.0879 24.6014 55.6166 25.6379 54.1452 26.8633L53.851 27.3346C55.8124 25.9207 57.7742 24.6954 59.9322 23.8471L61.7962 23.093L61.894 22.9987L65.3271 22.0562Z" fill="#231F20"/>
<path fill-rule="evenodd" clip-rule="evenodd" d="M62.0898 26.392H62.1882V26.2984L62.0898 26.392Z" fill="#F688B5"/>
<path fill-rule="evenodd" clip-rule="evenodd" d="M62.1882 26.2978V26.392L65.0325 26.6751L64.8366 24.8839L62.1882 26.2978Z" fill="#F38E93"/>
<path fill-rule="evenodd" clip-rule="evenodd" d="M61.894 22.9987L61.7962 23.093C62.9733 22.9987 64.15 22.716 65.3271 22.3389V22.0562L61.894 22.9987Z" fill="#F688B5"/>
<path fill-rule="evenodd" clip-rule="evenodd" d="M65.5229 23.9413L65.9159 23.6586L65.6213 23.3758L65.5229 23.9413Z" fill="#FABAD3"/>
<path fill-rule="evenodd" clip-rule="evenodd" d="M53.5564 12.6305C52.772 11.6879 52.0854 11.4051 51.5949 11.6879C50.7121 12.1592 50.0255 12.9132 49.7312 14.1386L49.437 15.4582L49.535 16.3065C49.6331 16.6835 50.0255 16.872 50.5159 16.9663H50.8102L51.8892 14.7041C52.3796 13.6673 52.9682 13.0075 53.5564 12.6305Z" fill="#231F20"/>
<path fill-rule="evenodd" clip-rule="evenodd" d="M58.2646 13.196L58.5592 12.7247V12.3477C58.4608 11.9707 58.0688 11.6879 57.4799 11.4051C56.7933 10.9338 56.107 10.8396 55.5182 11.0281C55.1261 11.1224 54.9293 11.4994 54.9293 12.3477L57.0879 12.7247L58.2646 13.196Z" fill="#231F20"/>
<path fill-rule="evenodd" clip-rule="evenodd" d="M57.6758 21.5849C57.8726 21.1136 57.8726 20.7366 57.6758 20.3599L57.2838 20.7366L57.0879 21.3021C56.0086 22.716 54.4395 23.7528 52.1835 24.4126C52.0854 24.5069 52.1835 24.6014 52.5758 24.6954C53.851 24.6954 55.1261 24.1298 56.4006 23.1873C57.0879 23.47 57.7742 23.6586 58.5592 23.7528L59.8338 23.093C58.7551 23.093 57.8726 22.9988 56.9895 22.6217L57.6758 21.5849Z" fill="#B74870"/>
<path fill-rule="evenodd" clip-rule="evenodd" d="M59.0497 27.9001V27.7116H59.2455L60.9131 26.4863C59.5401 26.5805 58.4608 26.8633 57.6758 27.3346L57.4799 27.6174V27.8059C57.4799 27.9944 57.5784 27.9944 57.7742 27.9001L58.0688 27.8059L58.3631 28.5599L59.0497 27.9001Z" fill="#B74870"/>
<path fill-rule="evenodd" clip-rule="evenodd" d="M107.309 11.7822C107.8 12.1592 107.996 12.6305 107.996 13.2903C105.936 13.6673 104.367 14.3271 103.091 15.1754C102.013 14.6099 100.835 14.5156 99.4621 14.6099C98.187 14.7984 97.0099 15.2697 96.1274 16.0237C95.5386 16.5893 95.3427 17.1548 95.5386 17.5318L96.029 18.192L96.7156 18.6632L94.4592 18.7572C93.7729 18.9457 93.0863 19.3227 92.4975 19.9825L92.2038 20.3599C92.7921 19.9825 93.4783 19.6998 94.3618 19.417L96.3229 19.2285C95.9306 20.1711 96.2252 21.1136 97.0099 21.8677C97.5987 22.2447 98.3828 22.5275 99.2663 22.5275C100.05 22.5275 100.835 22.339 101.718 22.0562L102.601 21.3964C102.895 21.2079 103.091 20.8308 103.091 20.5481L101.032 21.6792L98.579 21.8677C97.9908 21.5849 97.5003 21.1136 97.1083 20.2653C96.9115 20.0768 97.0099 19.794 97.1083 19.5112L97.5987 18.9457C98.3828 18.4744 99.3637 18.0974 100.345 18.0031C101.424 17.9089 102.405 18.0974 103.091 18.6632C103.582 18.9457 103.876 19.5112 103.974 20.1711L103.778 21.8677C103.19 23.47 102.306 24.3184 101.228 24.5069C99.7567 24.8839 98.187 24.8839 96.3229 24.5069C95.3427 24.3184 93.7729 23.8471 91.8112 23.093L91.3207 23.3758L91.1245 23.8471L89.8494 32.3302C89.1628 35.4407 88.378 38.0799 87.3971 40.3421C87.2994 40.7191 87.0051 40.9076 86.7105 40.9076C81.1198 41.5677 75.3318 41.5677 69.0545 40.9076L66.6022 38.1742C65.7198 37.2316 64.7382 36.4775 63.7573 36.1005C63.1691 36.0062 62.8748 36.1948 62.6787 36.5718C62.5802 37.5144 62.8748 38.6455 63.4637 39.7765L65.1309 42.6985C68.1713 47.5056 70.2315 53.3496 71.3108 60.2303C72.4876 66.4513 72.4876 74.0862 71.6045 82.946C68.956 90.0153 66.6022 98.4045 64.8366 108.018C64.15 111.789 63.7573 116.03 63.6596 120.932C63.6596 123.854 63.8557 128.19 64.0516 134.128L64.7382 139.312C65.1309 141.386 65.5229 142.988 66.1118 144.307L66.5038 144.59L66.6022 144.496L66.308 141.762L66.8968 141.668H67.5831C70.6242 140.726 73.8605 140.443 77.1962 140.726C80.7268 141.008 83.7678 141.857 86.2201 143.365C87.593 144.119 88.6723 145.062 89.4573 145.91C89.1628 146.287 88.6723 146.57 87.986 146.852C85.8274 145.062 83.179 143.648 79.9427 142.705V142.799L83.6694 144.685C85.1408 145.439 86.3178 146.193 87.2994 147.041L82.9831 147.889C80.2363 145.439 77.6866 143.836 75.5287 142.988H75.4303L78.9618 145.25C80.3347 146.193 81.5118 147.041 82.2965 147.984L72.4876 149.114C69.5449 149.209 66.1118 149.209 62.0898 148.926C61.4035 148.832 60.9131 148.549 60.6185 148.361C60.3242 148.172 60.128 147.795 60.0306 147.418L59.8337 146.193C59.0497 133.374 59.736 119.612 61.9924 104.908L62.9733 94.6342C63.3653 90.6754 63.3653 87.1876 63.1691 84.2659L61.8939 77.5737C61.5994 75.4054 61.7962 73.6149 62.5802 72.1068L63.0707 71.1642L63.3653 70.0331C65.4248 68.3365 66.7984 66.8283 67.5831 65.5087C68.1713 64.0949 67.7793 62.3983 66.1118 60.6077L65.2287 59.7591L65.1309 57.9682C64.15 52.5958 62.4828 47.7884 60.128 43.4526L59.6376 42.51L59.0497 41.7559L61.0108 40.1536L59.6376 40.4363L58.2646 40.9076C52.9682 43.4526 47.9656 46.7516 43.2573 50.7104L42.4726 51.4644C41.786 51.0874 41.0994 50.8046 40.3143 50.7104C40.5108 51.0874 41.0013 51.4644 41.786 51.8415C42.5707 52.3127 43.1592 52.6898 43.4535 52.9725C48.9465 57.0256 55.1261 59.5705 61.9924 60.6077L63.6596 60.7016C64.4446 60.7016 64.935 60.9844 65.1309 61.3614L66.308 62.9638C66.6022 63.6236 66.7006 64.1891 66.5038 64.7547C65.1309 66.9226 63.3653 68.6192 61.3057 69.9388C59.1471 71.3527 56.7933 72.0125 54.3414 72.1068C53.9491 71.824 53.7529 71.4469 53.7529 70.9757L53.5564 69.6561L53.7529 68.525L54.3414 67.5824C54.9293 67.1111 55.8124 67.0172 56.8917 67.2054C57.1853 67.3939 57.3822 67.5824 57.3822 67.9594V68.902L56.7933 70.9757C57.2838 70.5044 57.6758 70.0331 57.9704 69.4675C58.2646 68.902 58.3631 68.2422 58.2646 67.7709C58.1662 67.2996 57.8726 66.9226 57.3822 66.5459C58.6567 65.1317 60.128 64.1891 61.8939 63.7179C60.9131 63.6236 60.0306 63.9064 59.0497 64.3777C58.2646 64.8493 57.5784 65.5087 56.8917 66.3571H55.0277L54.5376 64.4719L56.107 63.3408H59.9322C59.736 63.1523 59.5401 62.9638 59.2455 62.8695L58.3631 62.4925L52.772 60.9844C50.614 60.3246 48.7503 59.7591 47.279 59.0993C43.1592 57.4969 39.9223 55.4232 37.2739 52.8783L36.8815 52.3127L36.6854 51.6529C36.9796 50.8989 37.6662 50.1448 38.6471 49.3908L41.1975 47.5999C42.7669 46.4688 45.2191 44.4894 48.4561 41.6617C51.4968 38.9282 53.9491 36.9488 55.714 35.8177L57.5784 35.6295C58.2646 35.7235 58.7551 36.0062 59.0497 36.4775L59.736 37.4201C59.9322 36.9488 59.736 36.289 59.1471 35.4407L57.4799 34.4039L55.6166 31.6704L55.0277 32.3302L56.6949 34.3096C56.107 34.3096 55.5182 34.5924 54.8319 34.9694L53.1643 36.1948L36.6854 49.8621C35.8026 50.6161 35.5083 51.3702 35.7045 52.2185C36.0968 53.7266 38.1567 55.5175 41.786 57.4969C44.8268 59.1935 48.0637 60.5131 51.5949 61.6442L55.714 62.8695L54.7338 63.3408L53.9491 64.0006C53.2624 63.3408 52.772 63.0581 52.1834 62.9638C51.9873 62.9638 51.7911 63.0581 51.5949 63.3408L51.2026 63.9064L48.4561 64.1891C47.4752 64.4719 46.7885 64.9432 46.2981 65.6973C45.7096 66.8283 46.0035 68.1479 47.1809 69.6561C48.1618 70.6929 49.4369 71.1642 51.0064 71.1642C51.3006 71.6355 51.5949 72.0125 51.8892 72.2953L52.4777 72.4838H53.0659C53.5564 73.2378 54.4395 73.5206 55.6166 73.3324L58.2646 72.578C59.8337 72.1068 60.9131 71.7297 61.5994 71.3527C61.1089 72.578 60.7169 73.5206 60.6185 74.2747C60.3242 75.4054 60.3242 76.4423 60.6185 77.4791V77.8561C59.2455 78.0449 57.8726 78.422 56.7933 78.8933C54.0471 80.3068 51.3987 82.3801 48.7503 85.1142C46.8866 87.1876 44.7283 89.8271 42.5707 93.1261L35.1159 105.756C29.819 114.145 24.228 119.801 18.539 122.722C14.9096 124.702 9.71095 125.268 3.13885 124.325C1.96165 124.325 1.17694 124.608 0.588273 125.268C0.0982094 125.644 -0.0982247 126.304 -7.65733e-06 127.059C0.0982094 127.435 0.490438 127.718 1.17694 128.095C3.04076 128.661 5.68917 129.038 8.92585 129.132C14.9096 129.226 20.7949 126.776 26.3859 122.063C30.3094 118.576 34.3312 113.674 38.549 107.359L43.5516 98.9697C45.6115 95.6707 47.3771 92.9373 49.0446 90.7697C51.0064 88.4132 52.8701 86.5281 54.5376 85.1142C56.7933 83.3233 59.0497 82.1923 61.3057 81.5322L61.6978 82.2865L61.9924 83.1348C62.1882 86.9051 62.1882 90.7697 61.9924 94.6342L60.7169 106.416V108.207C58.5592 110.092 56.2044 112.071 53.4586 113.957C51.3987 115.465 48.8484 117.067 45.7096 118.952L44.8268 119.141L40.6089 119.329C39.0395 119.424 37.8624 119.895 37.0777 120.838C35.6064 123.194 34.8217 126.022 34.4293 129.321C34.135 132.243 34.2331 135.353 34.8217 138.464C35.4099 140.82 36.1949 142.894 36.9796 144.59C38.0586 146.758 39.4319 148.455 41.0994 149.963L42.5707 150.811L44.1401 151L45.2191 149.775C45.9057 148.172 46.2981 146.381 46.2981 144.496L45.6115 134.41C45.5134 130.357 46.1019 127.153 47.279 124.513C51.2026 121.12 55.2236 118.104 59.5401 115.465H59.736L58.9513 124.136C58.6567 127.435 58.4608 130.357 58.5592 132.808L58.6567 145.062L59.0497 147.701C59.4417 149.02 60.4226 149.775 61.9924 150.057L66.308 150.245L76.1169 149.963L85.4354 148.549L88.1819 147.795C89.1628 147.418 89.8494 146.852 90.2414 146.098C90.2414 145.439 89.8494 144.779 89.1628 144.119L87.201 142.611C83.0816 140.16 78.3729 139.124 72.8796 139.595C70.0354 139.783 67.7793 140.16 66.0134 140.82C65.2287 135.542 64.8366 131.489 64.8366 128.661L65.3271 112.449L67.1904 111.317C68.1713 110.846 68.956 110.092 69.4465 109.055L73.4685 94.1629C74.5478 89.7325 75.136 85.5855 75.3318 81.8152L76.6073 79.8355C77.9803 77.8561 78.8634 75.5939 79.2554 72.8608C79.55 70.5044 79.4522 67.9594 78.9618 65.3205C77.5882 57.2141 74.4494 49.3908 69.7411 41.8502H69.8389L83.7678 42.2272L86.4163 42.0387C87.3971 41.7559 88.0834 41.3789 88.378 40.6249C90.4382 35.2522 91.615 29.691 91.8112 24.0356C93.5768 24.8839 95.3427 25.5437 97.1083 25.8265C99.2663 26.1092 101.13 25.9207 102.699 25.1667C103.582 24.4126 104.268 23.47 104.759 22.5275C105.151 21.3964 105.151 20.3599 104.857 19.2285L104.072 18.0974L104.367 17.4376L104.171 16.495L103.778 15.741C105.053 14.9869 106.72 14.5156 108.585 14.0443L108.977 13.573C109.173 12.6305 108.977 11.7822 108.585 11.2166C106.917 9.51999 104.857 9.14296 102.405 9.99127C100.541 10.7453 98.7758 12.0649 97.0099 14.0443L93.0863 14.5156L92.6943 12.7247L91.8112 11.2166C91.3207 10.8396 90.8303 10.5568 90.2414 10.5568C89.5548 10.4626 88.9669 10.6511 88.378 10.9338C87.6914 11.3109 87.201 11.7822 86.9067 12.3477C86.7105 12.7247 86.6121 13.1018 86.7105 13.3845C86.8083 13.6673 87.0051 13.9504 87.201 14.3271L87.8876 15.1754L88.0834 16.1183L87.1025 17.0606C86.7105 17.8146 86.9067 18.7572 87.6914 19.8883L88.5739 21.1136L88.8685 22.0562L86.9067 29.7853C86.0242 32.5187 84.9449 34.9694 83.6694 36.9488L71.0163 36.0062L64.542 34.4039L63.6596 34.3096L62.7764 34.4981C61.3057 32.613 60.128 30.5393 59.2455 28.4657L58.4608 29.1255C59.3433 31.388 60.8146 33.5556 62.8748 35.535L64.935 35.6295C67.4847 36.4775 70.4274 37.1373 73.8605 37.5144L83.2774 37.7971C83.964 37.7971 84.5529 37.5144 85.0433 36.8546L85.9258 35.0637L88.2803 28.3714C88.9669 25.8265 89.3589 23.47 89.5548 21.3021C89.4573 20.8308 89.1628 20.3599 88.6723 19.6998L87.7898 18.2859C87.6914 17.9089 87.7898 17.6261 87.986 17.4376L88.7707 16.872L89.3589 16.2122C89.3589 16.0237 89.2605 15.741 89.0643 15.4582C88.4765 14.2328 88.0834 13.573 87.593 13.1018C87.6914 12.6305 87.986 12.1592 88.5739 11.7822C89.1628 11.4994 89.6532 11.4051 90.0452 11.4994C91.1245 11.9707 91.8112 13.0075 92.1054 14.5156L91.8112 16.2122C92.007 16.1183 92.2038 16.0237 92.4 15.9295L92.8905 15.3639C94.0672 15.4582 95.5386 15.2697 97.3045 14.7984L101.228 11.8767C102.895 10.9338 104.464 10.5568 106.034 10.9338L107.309 11.7822ZM99.8541 15.4582C100.737 15.3639 101.62 15.5524 102.405 15.9295L103.091 16.5893C103.287 16.872 103.287 17.2491 103.19 17.6261L103.091 17.8146C102.405 17.0606 101.424 16.872 100.247 17.1548C99.5599 17.2491 98.579 17.5318 97.4019 18.192C96.9115 17.9089 96.6179 17.5318 96.5194 17.1548C96.5194 16.6835 96.7156 16.4008 97.3045 15.9295L99.8541 15.4582ZM53.1643 64.4719L53.9491 65.1317L54.4395 66.5459C53.1643 67.2996 52.6739 68.902 53.0659 71.4469C52.4777 71.4469 52.1834 71.3527 51.9873 71.1642C51.693 70.6929 51.4968 70.0331 51.3987 69.1848L51.2026 67.1111L51.3987 65.4145C51.5949 64.8493 51.8892 64.3777 52.2815 64.1891C52.5758 64.0949 52.8701 64.2834 53.1643 64.4719ZM63.4637 37.4201C63.2669 36.9488 63.3653 36.7603 63.5611 36.8546C64.2478 36.9488 64.935 37.3262 65.6213 37.9856L67.4847 40.0593C72.1933 46.7516 75.6264 55.0462 77.7841 64.9432C78.2745 67.9594 78.2745 70.6929 77.9803 73.2378C77.4898 76.1598 76.5089 78.6105 74.9398 80.5896L74.5478 81.0609L72.1933 83.9832C72.4876 82.6636 72.6838 80.9669 72.5854 78.7044C73.1742 73.4263 73.1742 68.1479 72.3892 62.7756C71.7029 57.4969 70.4274 52.5013 68.4656 47.7884L65.3271 41.9445C64.15 39.6823 63.4637 38.1742 63.4637 37.4201ZM62.3844 51.6529C63.2669 54.1979 63.8557 56.9313 64.15 59.7591L58.0688 58.9107C55.6166 58.3452 53.0659 57.4026 50.3198 55.9888L43.1592 51.8415L43.6497 51.2759L53.1643 44.7722L57.9704 42.3215C58.9513 43.4526 59.8337 44.9607 60.6185 46.7516L62.3844 51.6529ZM71.7029 85.491L74.1551 83.4173C73.6647 87.2818 72.8796 91.5234 71.8013 96.0481L68.6618 108.395C68.4656 108.961 68.0736 109.527 67.3873 109.998L65.5229 111.035C65.7198 108.49 66.308 105.474 67.0927 102.081L71.7029 85.491ZM60.7169 78.6105L61.3057 80.6838C58.9513 81.1551 56.499 82.3801 54.1452 84.3599C52.2815 85.868 50.4175 87.8474 48.2599 90.3926C46.9847 91.9947 45.6115 93.8798 44.2379 95.9535L37.2739 107.642C35.8026 109.715 34.5271 111.601 33.1541 113.203C30.6037 116.785 27.661 119.801 24.5222 122.251C20.9909 124.985 17.3617 126.776 13.6343 127.812C10.6915 128.472 6.76802 128.378 2.05987 127.53L1.56942 127.341L1.07872 126.964C0.981012 126.21 1.17694 125.833 1.7656 125.644L5.39477 125.551L7.16063 125.833H9.02407C13.0459 126.022 16.8711 124.985 20.5986 122.817C23.6395 121.026 26.6801 118.387 29.819 114.805C31.8791 112.355 33.9389 109.433 35.9987 106.228C37.4701 103.777 39.2357 100.761 41.1975 97.1788L46.8866 88.696C49.3389 85.5855 51.8892 83.1348 54.4395 81.4382C56.107 79.9301 58.1662 79.0818 60.7169 78.6105ZM60.4226 109.433L59.8337 114.145C55.0277 116.879 50.2217 120.461 45.6115 124.796L43.7478 127.153L43.8459 127.247H43.944L45.9057 125.833C45.3172 127.341 44.8268 129.038 44.7283 130.923C44.5325 132.431 44.5325 134.222 44.7283 136.39L45.121 141.857C45.2191 143.93 45.121 145.721 45.0229 147.23L44.5325 148.832C44.2379 149.397 44.042 149.963 43.6497 150.245L43.0611 149.775C43.3554 146.381 43.3554 143.648 42.9631 141.48H42.865L42.7669 145.439C42.7669 146.947 42.6688 148.266 42.4726 149.303C41.3936 148.643 40.3143 147.512 39.3338 145.91L40.4127 141.386C40.6089 139.5 40.6089 137.992 40.3143 136.579L40.2166 136.484L40.1185 136.673C40.2166 137.992 40.2166 139.5 39.9223 141.103L38.9411 145.344C36.7834 141.951 35.7045 137.992 35.6064 133.374C35.4099 128.944 36.1949 125.079 37.7643 121.78C38.451 121.026 39.5299 120.649 40.8051 120.366L44.2379 119.895L43.5516 120.554H44.2379C50.3198 117.539 55.714 113.863 60.4226 109.433ZM47.279 67.2054C47.1809 66.7341 47.279 66.4513 47.5733 66.0743L48.4561 65.4145L50.614 64.7547L50.5159 65.4145L50.2217 66.0743C50.1236 67.7709 50.2217 69.0908 50.7121 70.2216C49.8293 70.0331 49.1424 69.6561 48.4561 69.1848C47.7694 68.525 47.3771 67.8652 47.279 67.2054Z" fill="#B74870"/>
<path fill-rule="evenodd" clip-rule="evenodd" d="M102.405 15.9295C101.62 15.5524 100.737 15.3639 99.8542 15.4582L97.3045 15.9295C96.7156 16.4007 96.5194 16.6835 96.5194 17.1548C96.6179 17.5318 96.9115 17.9089 97.4019 18.1919C98.579 17.5318 99.5599 17.2491 100.247 17.1548C101.424 16.872 102.405 17.0605 103.091 17.8146L103.19 17.6261C103.287 17.2491 103.287 16.872 103.091 16.5893L102.405 15.9295Z" fill="#F38E93"/>
<path fill-rule="evenodd" clip-rule="evenodd" d="M53.9491 65.1317L53.1643 64.4719C52.8701 64.2834 52.5758 64.0949 52.2815 64.1892C51.8892 64.3777 51.5949 64.8493 51.3987 65.4145L51.2026 67.1111L51.3987 69.1848C51.4968 70.0331 51.693 70.6929 51.9873 71.1642C52.1835 71.3527 52.4777 71.447 53.0659 71.447C52.6739 68.902 53.1643 67.2996 54.4395 66.5459L53.9491 65.1317Z" fill="#F38E93"/>
<path fill-rule="evenodd" clip-rule="evenodd" d="M63.5612 36.8546C63.3653 36.7603 63.2669 36.9488 63.4637 37.4201C63.4637 38.1742 64.15 39.6823 65.3271 41.9444L68.4656 47.7884C70.4274 52.5013 71.7029 57.4969 72.3892 62.7756C73.1742 68.1479 73.1742 73.4263 72.5854 78.7044C72.6838 80.9669 72.4876 82.6635 72.1933 83.9831L74.5478 81.0609L74.9398 80.5896C76.5089 78.6105 77.4898 76.1598 77.9803 73.2378C78.2745 70.6929 78.2745 67.9594 77.7841 64.9432C75.6265 55.0462 72.1933 46.7516 67.4847 40.0593L65.6214 37.9856C64.9351 37.3262 64.2478 36.9488 63.5612 36.8546Z" fill="#F6BBBA"/>
<path fill-rule="evenodd" clip-rule="evenodd" d="M74.1551 83.4173L71.7029 85.4909L67.0927 102.081C66.308 105.474 65.7198 108.49 65.5229 111.035L67.3873 109.998C68.0736 109.527 68.4656 108.961 68.6618 108.395L71.8013 96.0481C72.8796 91.5234 73.6647 87.2818 74.1551 83.4173Z" fill="#F38E93"/>
<path fill-rule="evenodd" clip-rule="evenodd" d="M61.3058 80.6838L60.7169 78.6105C58.1662 79.0818 56.107 79.9301 54.4395 81.4382C51.8892 83.1348 49.3389 85.5855 46.8866 88.696L41.1975 97.1788C39.2357 100.761 37.4701 103.777 35.9987 106.228C33.9389 109.433 31.8791 112.355 29.819 114.805C26.6801 118.387 23.6395 121.026 20.5986 122.817C16.8711 124.985 13.0459 126.022 9.02408 125.833H7.16064L5.39477 125.551L1.7656 125.644C1.17694 125.833 0.981018 126.21 1.07873 126.964L1.56943 127.341L2.05987 127.53C6.76802 128.378 10.6915 128.472 13.6343 127.812C17.3617 126.776 20.991 124.985 24.5222 122.251C27.661 119.801 30.6037 116.785 33.1542 113.203C34.5271 111.601 35.8026 109.715 37.2739 107.642L44.2379 95.9535C45.6115 93.8798 46.9847 91.9947 48.2599 90.3926C50.4175 87.8474 52.2816 85.868 54.1452 84.3599C56.4991 82.3802 58.9513 81.1551 61.3058 80.6838Z" fill="#F38E93"/>
<path fill-rule="evenodd" clip-rule="evenodd" d="M59.8338 114.145L60.4226 109.433C55.714 113.863 50.3198 117.539 44.2379 120.554H43.5516L44.2379 119.895L40.8051 120.366C39.5299 120.649 38.451 121.026 37.7643 121.78C36.1949 125.079 35.4099 128.944 35.6064 133.374C35.7045 137.992 36.7834 141.951 38.9411 145.344L39.9223 141.103C40.2166 139.5 40.2166 137.992 40.1185 136.673L40.2166 136.484L40.3143 136.579C40.6089 137.992 40.6089 139.5 40.4127 141.386L39.3338 145.91C40.3143 147.512 41.3936 148.643 42.4726 149.303C42.6688 148.266 42.7669 146.947 42.7669 145.439L42.865 141.48H42.9631C43.3554 143.648 43.3554 146.381 43.0611 149.775L43.6497 150.245C44.042 149.963 44.2379 149.397 44.5325 148.832L45.0229 147.23C45.121 145.721 45.2191 143.93 45.121 141.857L44.7283 136.39C44.5325 134.222 44.5325 132.431 44.7283 130.923C44.8268 129.038 45.3172 127.341 45.9057 125.833L43.944 127.247H43.8459L43.7478 127.153L45.6115 124.796C50.2217 120.461 55.0277 116.879 59.8338 114.145Z" fill="#F38E93"/>
<path fill-rule="evenodd" clip-rule="evenodd" d="M47.5733 66.0743C47.279 66.4513 47.1809 66.7341 47.279 67.2054C47.3771 67.8652 47.7694 68.525 48.4561 69.1848C49.1424 69.656 49.8293 70.0331 50.7121 70.2216C50.2217 69.0908 50.1236 67.7709 50.2217 66.0743L50.5159 65.4145L50.614 64.7547L48.4561 65.4145L47.5733 66.0743Z" fill="#F38E93"/>
<path fill-rule="evenodd" clip-rule="evenodd" d="M107.996 13.2903C107.996 12.6305 107.8 12.1592 107.309 11.7821L106.034 10.9338C104.464 10.5568 102.895 10.9338 101.228 11.8767L97.3045 14.7984C95.5385 15.2697 94.0672 15.4582 92.8905 15.3639L92.4 15.9295C92.2038 16.0237 92.007 16.1183 91.8111 16.2122L92.1054 14.5156C91.8111 13.0075 91.1245 11.9707 90.0452 11.4994C89.6532 11.4051 89.1627 11.4994 88.5739 11.7821C87.986 12.1592 87.6914 12.6305 87.593 13.1018C88.0834 13.573 88.4764 14.2328 89.0643 15.4582C89.2605 15.7409 89.3589 16.0237 89.3589 16.2122L88.7707 16.872L87.986 17.4376C87.7898 17.6261 87.6914 17.9089 87.7898 18.2859L88.6723 19.6997C89.1627 20.3599 89.4573 20.8308 89.5548 21.3021C89.3589 23.47 88.9669 25.8265 88.2803 28.3714L85.9258 35.0637L85.0433 36.8546C84.5529 37.5144 83.964 37.7971 83.2774 37.7971L73.8605 37.5144C70.4274 37.1373 67.4847 36.4775 64.935 35.6295L62.8748 35.535C60.8146 33.5556 59.3433 31.388 58.4608 29.1255L55.6166 31.6704L57.4799 34.4039L59.1471 35.4407C59.736 36.289 59.9322 36.9488 59.736 37.4201L59.0497 36.4775C58.7551 36.0062 58.2646 35.7235 57.5783 35.6295L55.714 35.8177C53.949 36.9488 51.4968 38.9282 48.4561 41.6617C45.2191 44.4894 42.7669 46.4688 41.1975 47.5999L38.6471 49.3908C37.6662 50.1448 36.9796 50.8989 36.6853 51.6529L36.8815 52.3127L37.2739 52.8783C39.9223 55.4232 43.1592 57.4969 47.279 59.0993C48.7503 59.759 50.614 60.3246 52.772 60.9844L58.3631 62.4925L59.2455 62.8695C59.5401 62.9638 59.736 63.1523 59.9322 63.3408H56.107L54.5376 64.4719L55.0277 66.357H56.8917C57.5783 65.5087 58.2646 64.8493 59.0497 64.3776C60.0306 63.9064 60.9131 63.6236 61.8939 63.7178C60.128 64.1891 58.6567 65.1317 57.3822 66.5459C57.8726 66.9226 58.1662 67.2996 58.2646 67.7709C58.3631 68.2422 58.2646 68.902 57.9704 69.4675C57.6758 70.0331 57.2838 70.5044 56.7933 70.9757L57.3822 68.902V67.9594C57.3822 67.5824 57.1853 67.3939 56.8917 67.2054C55.8124 67.0172 54.9293 67.1111 54.3414 67.5824L53.7529 68.525L53.5564 69.6561L53.7529 70.9757C53.7529 71.4469 53.949 71.824 54.3414 72.1067C56.7933 72.0125 59.1471 71.3527 61.3057 69.9388C63.3653 68.6192 65.1309 66.9226 66.5038 64.7547C66.7006 64.1891 66.6022 63.6236 66.308 62.9638L65.1309 61.3614C64.935 60.9844 64.4446 60.7016 63.6596 60.7016L61.9924 60.6077C55.1261 59.5705 48.9465 57.0256 43.4535 52.9725C43.1592 52.6898 42.5707 52.3127 41.786 51.8414C41.0013 51.4644 40.5108 51.0874 40.3143 50.7104C41.0994 50.8046 41.786 51.0874 42.4726 51.4644L43.2573 50.7104C47.9656 46.7516 52.9682 43.4526 58.2646 40.9076L59.6376 40.4363L61.0108 40.1536L59.0497 41.7559L59.6376 42.51L60.128 43.4526C62.4828 47.7884 64.15 52.5958 65.1309 57.9682L65.2287 59.759L66.1118 60.6077C67.7793 62.3982 68.1713 64.0949 67.5831 65.5087C66.7984 66.8283 65.4248 68.3364 63.3653 70.0331L63.0707 71.1642L62.5802 72.1067C61.7962 73.6149 61.5994 75.4054 61.8939 77.5737L63.1691 84.2659C63.3653 87.1876 63.3653 90.6754 62.9733 94.6342L61.9924 104.908C59.736 119.612 59.0497 133.374 59.8337 146.193L60.0306 147.418C60.128 147.795 60.3242 148.172 60.6185 148.361C60.9131 148.549 61.4035 148.832 62.0898 148.926C66.1118 149.209 69.5449 149.209 72.4876 149.114L82.2965 147.984C81.5118 147.041 80.3347 146.193 78.9618 145.25L75.4303 142.988H75.5287C77.6866 143.836 80.2363 145.439 82.9831 147.889L87.2994 147.041C86.3178 146.193 85.1408 145.439 83.6694 144.685L79.9427 142.799V142.705C83.179 143.648 85.8274 145.062 87.986 146.852C88.6723 146.57 89.1627 146.287 89.4573 145.91C88.6723 145.062 87.593 144.119 86.2201 143.365C83.7678 141.857 80.7267 141.008 77.1962 140.726C73.8605 140.443 70.6242 140.726 67.5831 141.668H66.8968L66.308 141.762L66.6022 144.496L66.5038 144.59L66.1118 144.307C65.5229 142.988 65.1309 141.386 64.7382 139.312L64.0516 134.128C63.8557 128.19 63.6596 123.854 63.6596 120.932C63.7573 116.03 64.15 111.789 64.8366 108.018C66.6022 98.4045 68.956 90.0153 71.6045 82.946C72.4876 74.0861 72.4876 66.4513 71.3108 60.2303C70.2315 53.3496 68.1713 47.5056 65.1309 42.6985L63.4637 39.7765C62.8748 38.6454 62.5802 37.5144 62.6787 36.5718C62.8748 36.1948 63.1691 36.0062 63.7573 36.1005C64.7382 36.4775 65.7198 37.2316 66.6022 38.1742L69.0545 40.9076C75.3318 41.5677 81.1198 41.5677 86.7105 40.9076C87.0051 40.9076 87.2994 40.7191 87.3971 40.3421C88.378 38.0799 89.1627 35.4407 89.8494 32.3302L91.1245 23.8471L91.3207 23.3758L91.8111 23.093C93.7729 23.8471 95.3427 24.3184 96.3229 24.5069C98.187 24.8839 99.7567 24.8839 101.228 24.5069C102.306 24.3184 103.19 23.47 103.778 21.8677L103.974 20.171C103.876 19.5112 103.582 18.9457 103.091 18.6632C102.405 18.0974 101.424 17.9089 100.345 18.0031C99.3637 18.0974 98.3828 18.4744 97.5987 18.9457L97.1083 19.5112C97.0099 19.794 96.9115 20.0768 97.1083 20.2653C97.5003 21.1136 97.9908 21.5849 98.579 21.8677L101.032 21.6792L103.091 20.5481C103.091 20.8308 102.895 21.2079 102.601 21.3964L101.718 22.0562C100.835 22.339 100.05 22.5275 99.2663 22.5275C98.3828 22.5275 97.5987 22.2447 97.0099 21.8677C96.2252 21.1136 95.9306 20.171 96.3229 19.2285L94.3618 19.417C93.4783 19.6997 92.792 19.9825 92.2038 20.3599L92.4974 19.9825C93.0863 19.3227 93.7729 18.9457 94.4592 18.7572L96.7156 18.6632L96.029 18.1919L95.5385 17.5318C95.3427 17.1548 95.5385 16.5893 96.1274 16.0237C97.0099 15.2697 98.187 14.7984 99.4621 14.6099C100.835 14.5156 102.013 14.6099 103.091 15.1754C104.367 14.3271 105.936 13.6673 107.996 13.2903Z" fill="#F38E93"/>
<path fill-rule="evenodd" clip-rule="evenodd" d="M76.9994 15.8352C77.1962 14.1386 76.8032 12.9132 75.7249 12.1592C71.2124 12.2534 66.1118 13.1018 60.2264 14.6099L59.2455 13.196L58.5592 12.7247L58.2647 13.196L57.0879 12.7247L56.499 13.1018L55.6166 13.9504L54.6357 13.4788L53.5564 13.3845C52.9682 13.573 52.3796 14.0443 51.8892 14.7041L50.8102 16.9663H50.5159L50.1236 18.0031C48.358 18.7572 47.279 19.2285 46.7885 19.3227L46.9847 17.9089C46.9847 17.3433 46.8866 16.872 46.6905 16.4008C46.3962 15.9295 46.1019 15.5524 45.6115 15.3639L43.7478 15.4582L42.3745 16.5893L40.6089 16.6835C39.7261 16.872 39.0395 17.3433 38.549 18.1919C38.0586 18.8514 37.8624 19.6998 37.7643 20.7366C37.6662 21.3964 37.8624 22.0562 38.451 22.716C38.8433 23.2815 39.4319 23.7528 40.2166 24.2241C40.8051 24.5069 41.6879 24.7896 42.865 24.8839C42.9631 25.7322 43.1592 26.4863 43.3554 27.0518C43.7478 27.8059 44.1401 28.3714 44.8268 28.843C45.8077 29.5025 47.0828 29.7853 48.5541 29.8795C49.6331 29.8795 50.8102 29.5968 51.9873 29.2197L55.0277 32.236L55.1261 31.8589L55.5182 31.4819C54.7338 30.5393 53.851 29.5968 52.8701 28.7484L52.3796 28.1829L48.6519 28.7484C47.1809 28.937 46.0035 28.6542 45.3172 27.8059C44.2379 26.769 43.8459 25.4494 44.1401 23.9413L41.2955 23.2815C40.2166 22.9048 39.5299 22.2447 39.1376 21.4906C38.9411 20.7366 39.0395 19.9825 39.3338 19.3227C39.628 18.6632 40.1185 18.0974 40.8051 17.7204L42.4726 17.6261C42.865 18.0974 43.2573 18.8514 43.5516 19.6998L44.1401 21.9619L44.4344 21.6792L44.5325 21.3021C46.3962 20.5481 48.2599 19.6998 50.2217 18.7572H50.7121C51.0064 17.8146 51.3006 16.872 51.7911 16.0237C52.3796 15.0812 52.9682 14.5156 53.5564 14.2328C54.3414 14.0443 55.0277 14.2328 55.8124 14.9869L57.3822 16.872C57.4799 16.872 57.6758 16.6835 57.6758 16.4008V16.1183C62.1882 15.6467 66.1118 15.5524 69.4465 15.8352C68.2698 16.872 67.3873 17.9089 66.7007 18.7572C66.1118 19.6998 65.6213 20.4538 65.4248 21.3964L66.1118 21.3021C66.7007 19.3227 68.1713 17.4376 70.5258 15.741C72.1933 15.9295 73.7631 16.6835 75.4303 18.1919L74.9398 20.7366L76.0185 20.6423C76.2153 19.6998 76.2153 18.7572 76.1169 17.7204C76.6073 17.1548 76.9016 16.495 76.9994 15.8352ZM57.2838 15.4582L56.3029 14.5156L57.4799 13.3845C57.7742 13.196 58.1662 13.2903 58.5592 13.6673L59.5401 14.7041L57.2838 15.4582ZM45.3172 16.4008L45.7096 16.872C45.9057 18.2859 45.9057 19.2285 45.8077 19.794L44.3363 20.6423C44.1401 19.417 43.6497 18.2859 43.0612 17.1548C43.2573 16.872 43.8459 16.495 44.6306 16.2122L45.3172 16.4008ZM71.5067 15.3639L75.3318 12.819L75.8223 13.1018L76.0185 13.573C76.3127 14.9869 76.2153 16.3065 75.6264 17.4376L75.2344 17.3433L73.4685 16.1183L71.5067 15.3639ZM73.6647 13.1018L70.2315 15.2697C67.2889 15.0812 64.15 15.0812 61.2073 15.2697L73.6647 13.1018Z" fill="#B74870"/>
<path fill-rule="evenodd" clip-rule="evenodd" d="M56.3029 14.5156L57.2838 15.4582L59.5402 14.7041L58.5593 13.6673C58.1663 13.2903 57.7742 13.196 57.48 13.3845L56.3029 14.5156Z" fill="#F38E93"/>
<path fill-rule="evenodd" clip-rule="evenodd" d="M45.7096 16.872L45.3172 16.4008L44.6306 16.2122C43.8459 16.495 43.2573 16.872 43.0612 17.1548C43.6497 18.2859 44.1401 19.417 44.3363 20.6423L45.8077 19.794C45.9057 19.2285 45.9057 18.2859 45.7096 16.872Z" fill="#F38E93"/>
<path fill-rule="evenodd" clip-rule="evenodd" d="M75.3319 12.819L71.5067 15.3639L73.4685 16.1183L75.2344 17.3433L75.6265 17.4376C76.2153 16.3065 76.3127 14.9869 76.0185 13.573L75.8223 13.1017L75.3319 12.819Z" fill="#E94D72"/>
<path fill-rule="evenodd" clip-rule="evenodd" d="M70.2316 15.2697L73.6647 13.1017L61.2073 15.2697C64.15 15.0811 67.2889 15.0811 70.2316 15.2697Z" fill="#F38E93"/>
<path fill-rule="evenodd" clip-rule="evenodd" d="M69.4465 21.4906L66.0134 21.8677L65.9159 22.6217L66.7984 23.3758C67.5831 22.9988 68.564 22.716 69.5449 22.5275C69.6427 22.4335 69.7411 22.5275 69.8388 22.6217L69.5449 22.9048L67.2888 23.6586L68.564 24.1298L71.9971 24.3184C73.0758 24.0356 73.9589 23.3758 74.4494 22.2447L74.6455 22.0562L74.9398 21.1136V20.7366L75.4303 18.192C73.7631 16.6835 72.1933 15.9295 70.5258 15.741C68.1713 17.4376 66.7006 19.3227 66.1118 21.3021L69.4465 21.1136L69.6427 21.2079L69.4465 21.4906Z" fill="#F6BBBA"/>
<path fill-rule="evenodd" clip-rule="evenodd" d="M65.4248 21.3964C65.6213 20.4538 66.1118 19.6998 66.7007 18.7572C67.3873 17.9089 68.2698 16.872 69.4465 15.8352C66.1118 15.5524 62.1882 15.6467 57.6758 16.1183V16.4008C57.6758 16.6835 57.4799 16.872 57.3822 16.872L55.8124 14.9869C55.0277 14.2328 54.3414 14.0443 53.5564 14.2328C52.9682 14.5156 52.3796 15.0812 51.7911 16.0237C51.3007 16.872 51.0064 17.8146 50.7121 18.7572H50.2217C48.2599 19.6998 46.3962 20.5481 44.5325 21.3021L44.4344 21.6792L44.1401 21.9619L43.5516 19.6998C43.2573 18.8514 42.865 18.0974 42.4726 17.6261L40.8051 17.7204C40.1185 18.0974 39.628 18.6632 39.3338 19.3227C39.0395 19.9825 38.9411 20.7366 39.1376 21.4906C39.53 22.2447 40.2166 22.9048 41.2956 23.2815L44.1401 23.9413C43.8459 25.4494 44.2379 26.769 45.3172 27.8059C46.0035 28.6542 47.1809 28.937 48.6519 28.7484L52.3796 28.1829L52.8701 28.7484C53.851 29.5968 54.7338 30.5393 55.5182 31.4819L58.3631 28.5599L58.0688 27.8059L57.7742 27.9001C57.5784 27.9944 57.4799 27.9944 57.4799 27.8059V27.6174L57.6758 27.3346C58.4608 26.8633 59.5401 26.5805 60.9131 26.4863L64.8366 24.1298C64.8366 23.6586 64.9351 23.2815 65.1309 22.8102L60.7169 23.7528L59.9322 23.8471C57.7742 24.6954 55.8124 25.9207 53.851 27.3346L54.1452 26.8633C55.6166 25.638 57.0879 24.6014 58.5593 23.7528C57.7742 23.6586 57.0879 23.47 56.4006 23.1873C55.1261 24.1298 53.851 24.6954 52.5758 24.6954C52.1835 24.6014 52.0854 24.5069 52.1835 24.4126C54.4395 23.7528 56.0086 22.716 57.0879 21.3021L57.2838 20.7366L57.6758 20.3599C57.8726 20.7366 57.8726 21.1136 57.6758 21.5849L56.9895 22.6217C57.8726 22.9988 58.7551 23.093 59.8338 23.093C61.6978 22.2447 63.5611 21.6792 65.4248 21.3964ZM58.3631 16.6835C58.6567 16.4008 58.7551 16.4008 58.6567 16.6835L57.2838 18.2859C56.8917 18.4744 56.2045 18.7572 55.4197 19.1342C53.9491 19.6998 52.8701 19.794 52.0854 19.417L51.3987 19.1342C52.772 19.2285 54.0472 19.0399 55.2236 18.6632C56.4006 18.2859 57.4799 17.6261 58.3631 16.6835ZM41.5895 22.0562C41.1975 21.8677 40.9032 21.6792 40.6089 21.3964C40.3143 21.1136 40.1185 20.8308 40.1185 20.5481C40.0204 19.8883 40.2166 19.5112 40.4128 19.417L41.0013 19.2285H41.4917C41.9822 19.5112 42.3745 19.9825 42.6688 20.6423L43.3554 22.1504L42.6688 22.2447L41.5895 22.0562Z" fill="#F38E93"/>
<path fill-rule="evenodd" clip-rule="evenodd" d="M58.6567 16.6835C58.7551 16.4008 58.6567 16.4008 58.3631 16.6835C57.4799 17.6261 56.4006 18.2859 55.2236 18.6632C54.0472 19.04 52.772 19.2285 51.3987 19.1342L52.0854 19.417C52.8701 19.794 53.9491 19.6998 55.4197 19.1342C56.2045 18.7572 56.8917 18.4744 57.2838 18.2859L58.6567 16.6835Z" fill="#231F20"/>
<path fill-rule="evenodd" clip-rule="evenodd" d="M40.6089 21.3964C40.9032 21.6792 41.1975 21.8677 41.5895 22.0562L42.6688 22.2447L43.3554 22.1504L42.6688 20.6423C42.3745 19.9825 41.9822 19.5112 41.4917 19.2285H41.0013L40.4127 19.417C40.2166 19.5112 40.0204 19.8883 40.1185 20.5481C40.1185 20.8308 40.3143 21.1136 40.6089 21.3964ZM41.0994 19.794C41.4917 19.8883 41.8841 20.171 42.1784 20.6423L42.6688 21.8677C42.2764 21.7734 41.8841 21.6792 41.5895 21.4906L40.707 20.6423V20.171C40.8051 19.8883 40.9032 19.794 41.0994 19.794Z" fill="#B74870"/>
<path fill-rule="evenodd" clip-rule="evenodd" d="M42.1784 20.6423C41.8841 20.171 41.4917 19.8883 41.0994 19.794C40.9032 19.794 40.8051 19.8883 40.707 20.171V20.6423L41.5895 21.4906C41.8841 21.6792 42.2764 21.7734 42.6688 21.8677L42.1784 20.6423Z" fill="#F6BBBA"/>
<path fill-rule="evenodd" clip-rule="evenodd" d="M62.1882 26.392H62.0898L60.521 27.5231C62.3844 27.2403 63.9542 27.2403 65.3271 27.5231L66.0134 28.843C66.5038 29.5968 67.2889 30.1623 68.0736 30.5393L70.9178 30.6336C71.9972 30.2566 72.978 29.314 73.4685 27.9944C73.9589 26.769 74.2535 25.4494 74.1551 23.9413L75.3319 22.339L74.4494 22.2447C73.9589 23.3758 73.0758 24.0356 71.9972 24.3184L68.564 24.1298L67.2889 23.6586L66.5038 24.0356C66.9943 24.4126 67.5831 24.6014 68.1713 24.7896L71.0163 24.9782L72.2918 24.6954L73.4685 24.1298L72.4876 27.2403C71.9972 28.5599 71.2124 29.314 70.33 29.5968C69.0545 29.7853 68.1713 29.5025 67.4847 28.7484C66.5038 27.7116 65.8175 26.2978 65.5229 24.5069L64.8366 24.8839L65.0325 26.6751L62.1882 26.392Z" fill="#B74870"/>
<path fill-rule="evenodd" clip-rule="evenodd" d="M62.0898 26.392L62.1882 26.2978L64.8366 24.8839L65.5229 24.5069L66.5038 24.0356L67.2889 23.6586L69.5449 22.9048L69.8389 22.6217C69.7411 22.5275 69.6427 22.4335 69.5449 22.5275C68.564 22.716 67.5831 22.9988 66.7984 23.3758L65.9159 23.6586L65.5229 23.9413L64.8366 24.1298L60.9131 26.4863L59.2456 27.7116L59.0497 27.9001L58.3631 28.5599L55.5182 31.4819L55.1261 31.8589L55.0277 32.236C54.8319 32.5187 54.8319 32.5187 54.9293 32.4245L55.0277 32.3302L55.6166 31.6704L58.4608 29.1255L59.2456 28.4657L60.521 27.5231L62.0898 26.392Z" fill="#231F20"/>
<path fill-rule="evenodd" clip-rule="evenodd" d="M66.5038 24.0356L65.5229 24.5069C65.8175 26.2978 66.5038 27.7116 67.4847 28.7485C68.1713 29.5025 69.0545 29.7853 70.3299 29.5968C71.2124 29.314 71.9971 28.5599 72.4876 27.2403L73.4685 24.1298L72.2917 24.6954L71.0162 24.9782L68.1713 24.7896C67.5831 24.6014 66.9943 24.4126 66.5038 24.0356Z" fill="#F6BBBA"/>
<path fill-rule="evenodd" clip-rule="evenodd" d="M74.9398 21.1136L75.9207 21.0193L79.7459 21.1136C82.1007 21.3964 84.4545 21.9619 86.8083 22.8102L86.4163 22.5275C82.8854 20.9251 79.4523 20.2653 76.0185 20.6423L74.9398 20.7366V21.1136Z" fill="#231F20"/>
<path fill-rule="evenodd" clip-rule="evenodd" d="M75.9207 21.0194L74.9398 21.1136L74.6456 22.0562H75.4303L75.9207 21.0194Z" fill="#B74870"/>
<path fill-rule="evenodd" clip-rule="evenodd" d="M75.4303 22.0562H74.6456L74.4494 22.2447L75.3319 22.339L80.2363 23.4701C82.5911 24.2241 84.8465 25.2609 87.1026 26.4863L86.8083 26.2035C83.179 23.7528 79.4523 22.339 75.4303 22.0562Z" fill="#231F20"/>
<path fill-rule="evenodd" clip-rule="evenodd" d="M94.4593 2.35646L93.8714 2.67029e-05L93.6745 0.188541L94.5577 5.46725L94.8523 6.03249H95.0481L95.1459 5.93854C95.0481 4.99565 94.8523 3.77031 94.4593 2.35646Z" fill="#231F20"/>
</svg>
